<svg width="48" height="49" viewBox="0 0 48 49" fill="none" xmlns="http://www.w3.org/2000/svg">
<path d="M23.9577 33.4454L31.883 25.5202H16.0325L23.9577 33.4454ZM10.0886 42.3613C8.99887 42.3613 8.06601 41.9733 7.28999 41.1973C6.51398 40.4212 6.12598 39.4884 6.12598 38.3987V10.6604C6.12598 9.57065 6.51398 8.63778 7.28999 7.86177C8.06601 7.08576 8.99887 6.69775 10.0886 6.69775H37.8269C38.9166 6.69775 39.8495 7.08576 40.6255 7.86177C41.4015 8.63778 41.7895 9.57065 41.7895 10.6604V38.3987C41.7895 39.4884 41.4015 40.4212 40.6255 41.1973C39.8495 41.9733 38.9166 42.3613 37.8269 42.3613H10.0886ZM37.8269 16.6043V10.6604H10.0886V16.6043H37.8269ZM10.0886 20.5669V38.3987H37.8269V20.5669H10.0886Z" fill="black"/>
</svg>
