<svg width="49" height="48" viewBox="0 0 49 48" fill="none" xmlns="http://www.w3.org/2000/svg">
<path d="M24.2473 32.9353L32.1725 25.01H16.3221L24.2473 32.9353ZM10.3781 41.8511C9.28842 41.8511 8.35556 41.4631 7.57955 40.6871C6.80353 39.9111 6.41553 38.9782 6.41553 37.8885V10.1502C6.41553 9.06052 6.80353 8.12765 7.57955 7.35164C8.35556 6.57563 9.28842 6.18762 10.3781 6.18762H38.1164C39.2062 6.18762 40.139 6.57563 40.915 7.35164C41.691 8.12765 42.079 9.06052 42.079 10.1502V37.8885C42.079 38.9782 41.691 39.9111 40.915 40.6871C40.139 41.4631 39.2062 41.8511 38.1164 41.8511H10.3781ZM38.1164 16.0942V10.1502H10.3781V16.0942H38.1164ZM10.3781 20.0568V37.8885H38.1164V20.0568H10.3781Z" fill="black"/>
</svg>
