<svg width="49" height="49" viewBox="0 0 49 49" fill="none" xmlns="http://www.w3.org/2000/svg">
<path d="M24.7365 33.4759L32.6618 25.5507H16.8113L24.7365 33.4759ZM10.8674 42.3918C9.77768 42.3918 8.84481 42.0038 8.0688 41.2278C7.29279 40.4518 6.90479 39.5189 6.90479 38.4292V10.6909C6.90479 9.60117 7.29279 8.6683 8.0688 7.89229C8.84481 7.11628 9.77768 6.72827 10.8674 6.72827H38.6057C39.6954 6.72827 40.6283 7.11628 41.4043 7.89229C42.1803 8.6683 42.5683 9.60117 42.5683 10.6909V38.4292C42.5683 39.5189 42.1803 40.4518 41.4043 41.2278C40.6283 42.0038 39.6954 42.3918 38.6057 42.3918H10.8674ZM38.6057 16.6348V10.6909H10.8674V16.6348H38.6057ZM10.8674 20.5974V38.4292H38.6057V20.5974H10.8674Z" fill="black"/>
</svg>
