<svg width="49" height="49" viewBox="0 0 49 49" fill="none" xmlns="http://www.w3.org/2000/svg">
<path d="M24.2473 33.415L32.1725 25.4898H16.3221L24.2473 33.415ZM10.3781 42.3309C9.28842 42.3309 8.35556 41.9429 7.57955 41.1669C6.80353 40.3909 6.41553 39.458 6.41553 38.3683V10.63C6.41553 9.54025 6.80353 8.60739 7.57955 7.83138C8.35556 7.05536 9.28842 6.66736 10.3781 6.66736H38.1164C39.2062 6.66736 40.139 7.05536 40.915 7.83138C41.691 8.60739 42.079 9.54025 42.079 10.63V38.3683C42.079 39.458 41.691 40.3909 40.915 41.1669C40.139 41.9429 39.2062 42.3309 38.1164 42.3309H10.3781ZM38.1164 16.5739V10.63H10.3781V16.5739H38.1164ZM10.3781 20.5365V38.3683H38.1164V20.5365H10.3781Z" fill="black"/>
</svg>
